<?xml version="1.0" standalone="no"?>
<!DOCTYPE svg PUBLIC "-//W3C//DTD SVG 20010904//EN"
 "http://www.w3.org/TR/2001/REC-SVG-20010904/DTD/svg10.dtd">
<svg version="1.0" xmlns="http://www.w3.org/2000/svg"
 width="165.000000pt" height="85.000000pt" viewBox="0 0 165.000000 85.000000"
 preserveAspectRatio="xMidYMid meet">

<g transform="translate(0.000000,85.000000) scale(0.100000,-0.100000)"
fill="#000000" stroke="none">
<path d="M1415 840 c-3 -5 -1 -10 4 -10 6 0 11 5 11 10 0 6 -2 10 -4 10 -3 0
-8 -4 -11 -10z"/>
<path d="M1365 820 c4 -6 11 -8 16 -5 14 9 11 15 -7 15 -8 0 -12 -5 -9 -10z"/>
<path d="M1410 810 c-25 -10 -57 -19 -72 -19 -16 -1 -28 -5 -28 -11 0 -18 -39
-30 -342 -110 -333 -87 -337 -87 -318 -18 19 69 -19 110 -87 93 -15 -3 -56
-27 -92 -52 -75 -54 -118 -62 -207 -39 -187 49 -283 -15 -257 -170 15 -85 46
-148 107 -213 66 -69 116 -95 174 -88 61 7 72 21 33 42 -42 21 -71 70 -71 119
0 30 7 45 34 72 30 30 40 34 88 34 64 0 80 10 110 70 l23 45 120 0 c120 0 121
0 315 62 209 67 443 133 470 133 9 0 26 -11 39 -24 15 -16 29 -22 46 -18 32 6
32 23 0 60 -14 17 -25 35 -25 41 0 14 -6 13 -60 -9z"/>
<path d="M1310 810 c0 -5 4 -10 9 -10 6 0 13 5 16 10 3 6 -1 10 -9 10 -9 0
-16 -4 -16 -10z"/>
<path d="M433 409 c-64 -18 -82 -101 -34 -150 24 -23 38 -29 73 -29 53 0 68
13 68 57 0 31 -2 33 -35 33 -35 0 -47 -16 -20 -26 8 -4 15 -13 15 -21 0 -27
-62 -12 -80 20 -13 24 -13 30 1 55 14 24 21 27 62 25 34 -1 47 3 47 12 0 25
-50 37 -97 24z"/>
<path d="M570 346 c0 -83 23 -116 81 -116 61 0 79 25 79 110 0 63 -2 70 -20
70 -17 0 -19 -8 -22 -66 -2 -51 -7 -70 -20 -78 -35 -21 -53 4 -56 78 -3 58 -5
66 -22 66 -18 0 -20 -7 -20 -64z"/>
<path d="M770 320 c0 -83 1 -90 20 -90 19 0 20 7 20 90 0 83 -1 90 -20 90 -19
0 -20 -7 -20 -90z"/>
<path d="M840 395 c0 -10 10 -15 30 -15 l30 0 0 -75 c0 -68 2 -75 20 -75 18 0
20 7 20 75 0 73 1 75 25 75 16 0 25 6 25 15 0 12 -15 15 -75 15 -60 0 -75 -3
-75 -15z"/>
<path d="M1018 323 c-28 -73 -31 -89 -19 -92 9 -2 22 6 29 18 20 29 82 30 89
1 3 -13 14 -20 28 -20 l23 0 -36 90 c-30 76 -39 90 -58 90 -18 0 -27 -14 -56
-87z m76 0 c6 -20 4 -23 -18 -23 -30 0 -29 -2 -15 40 12 34 19 30 33 -17z"/>
<path d="M1190 320 c0 -83 1 -90 20 -90 16 0 20 7 20 35 0 44 14 44 42 0 15
-23 31 -35 46 -35 l22 0 -24 39 c-22 34 -23 41 -11 51 18 15 20 61 3 78 -7 7
-36 12 -65 12 l-53 0 0 -90z m94 44 c6 -16 -21 -47 -38 -41 -13 4 -20 32 -12
52 6 16 42 9 50 -11z"/>
<path d="M1227 175 c80 -37 69 -145 -17 -165 -33 -7 -33 -8 -7 -9 42 -1 87 47
87 93 0 40 -32 81 -70 90 -19 4 -17 2 7 -9z"/>
<path d="M610 165 c-19 -23 -7 -49 35 -71 29 -15 40 -27 40 -44 0 -34 -27 -47
-67 -33 -30 11 -31 11 -14 -2 41 -31 96 -6 96 44 0 16 -11 26 -45 41 -46 20
-58 43 -33 68 7 7 9 12 6 12 -3 0 -11 -7 -18 -15z"/>
<path d="M761 154 c-31 -39 -28 -89 8 -125 20 -19 39 -29 58 -28 26 1 26 2 -7
9 -69 17 -94 97 -45 145 13 14 20 25 15 25 -5 0 -18 -12 -29 -26z"/>
<path d="M850 176 c0 -2 7 -7 16 -10 8 -3 12 -2 9 4 -6 10 -25 14 -25 6z"/>
<path d="M934 90 c0 -52 1 -74 3 -47 l4 47 59 0 59 0 4 -47 c2 -27 3 -5 3 47
0 52 -1 76 -3 53 l-4 -43 -59 0 -59 0 -4 43 c-2 23 -3 -1 -3 -53z"/>
<path d="M1141 154 c-29 -37 -27 -86 5 -121 l26 -28 -21 29 c-29 40 -27 91 4
121 13 14 20 25 15 25 -5 0 -18 -12 -29 -26z"/>
<path d="M1351 154 c-31 -39 -28 -89 8 -125 18 -17 40 -29 56 -29 39 0 85 50
85 93 0 33 -31 87 -50 87 -5 0 2 -11 15 -25 50 -49 17 -145 -50 -145 -67 0
-100 96 -50 145 13 14 20 25 15 25 -5 0 -18 -12 -29 -26z"/>
<path d="M1552 93 l-2 -93 48 2 47 1 -42 4 -42 4 -4 87 -3 87 -2 -92z"/>
</g>
</svg>
