<svg width="234" height="235" viewBox="0 0 234 235" fill="none" xmlns="http://www.w3.org/2000/svg">
<path fill-rule="evenodd" clip-rule="evenodd" d="M217.8 177.182C218.244 176.429 218.68 175.671 219.108 174.908L59.8302 15.3971C59.0678 15.8255 58.3107 16.2623 57.5589 16.7072L217.8 177.182ZM56.674 17.2362C55.5181 17.9342 54.3751 18.6517 53.2457 19.3882L215.123 181.502C215.858 180.371 216.575 179.226 217.272 178.068L56.674 17.2362ZM225.58 161.389C225.05 162.709 224.496 164.016 223.92 165.311L69.4125 10.5781C70.7056 10.0007 72.0111 9.4462 73.3284 8.91501L225.58 161.389ZM64.6676 12.8262C65.9122 12.2018 67.1694 11.5989 68.4387 11.0182L223.481 166.286C222.901 167.558 222.299 168.817 221.675 170.063L64.6676 12.8262ZM219.613 173.998C220.156 173.008 220.685 172.009 221.2 171.002L63.7296 13.3021C62.7242 13.8179 61.7272 14.3479 60.7388 14.8918L219.613 173.998ZM52.393 19.9495C51.4778 20.5576 50.5716 21.1784 49.6747 21.8114L212.703 185.078C213.335 184.18 213.955 183.272 214.562 182.356L52.393 19.9495ZM212.116 185.905L48.8488 22.3997C47.769 23.1759 46.7029 23.9701 45.6509 24.7818L209.737 189.107C210.548 188.054 211.341 186.986 212.116 185.905ZM209.119 189.904L44.8558 25.4008C43.8156 26.2178 42.7895 27.0521 41.778 27.9032L206.62 192.986C207.47 191.973 208.303 190.945 209.119 189.904ZM205.972 193.752L41.0131 28.5524C40.191 29.2562 39.3788 29.9712 38.5766 30.6972L203.83 196.192C204.555 195.388 205.269 194.575 205.972 193.752ZM197.2 202.968C196.414 203.71 195.618 204.44 194.811 205.16L29.6211 39.7286C30.3397 38.921 31.0693 38.1234 31.8097 37.3362L197.2 202.968ZM183.641 213.974C184.54 213.349 185.43 212.712 186.311 212.062L22.7283 48.2409C22.0799 49.1226 21.4436 50.0138 20.8195 50.9141L183.641 213.974ZM174.173 219.907C173.192 220.458 172.202 220.995 171.205 221.519L13.2854 63.3691C13.808 62.3697 14.3446 61.3788 14.8949 60.3966L174.173 219.907ZM157.369 227.663C158.479 227.255 159.581 226.83 160.675 226.389L8.42299 73.9147C7.98268 75.0101 7.55841 76.1137 7.15047 77.2252L157.369 227.663ZM147.192 230.887C145.978 231.211 144.756 231.515 143.527 231.801L3.02002 91.0887C3.30491 89.8576 3.60915 88.634 3.93242 87.4182L147.192 230.887ZM126.218 234.467C127.618 234.358 129.01 234.224 130.396 234.066L0.758927 104.239C0.601054 105.627 0.46735 107.021 0.358249 108.423L126.218 234.467ZM118.167 234.819C117.582 234.824 116.996 234.826 116.409 234.823C115.104 234.816 113.805 234.788 112.511 234.739L0.0841868 122.149C0.0206985 120.461 -0.0070958 118.763 0.00153499 117.058C0.00250165 116.867 0.00392414 116.676 0.00580144 116.485L118.167 234.819ZM104.996 234.214C106.994 234.418 109.006 234.572 111.032 234.674L0.149109 123.629C0.250777 125.658 0.404019 127.673 0.607553 129.673L104.996 234.214ZM98.0941 233.302C99.8533 233.588 101.626 233.835 103.411 234.042L0.780022 131.261C0.986426 133.048 1.23302 134.823 1.51888 136.585L98.0941 233.302ZM89.3338 231.528C91.6597 232.093 94.013 232.588 96.3913 233.012L1.80851 138.291C2.23116 140.672 2.72571 143.029 3.28983 145.359L89.3338 231.528ZM87.4462 231.053C84.7563 230.352 82.1042 229.558 79.4935 228.674L6.14145 155.215C5.25815 152.6 4.46457 149.943 3.76435 147.249L87.4462 231.053ZM77.3219 227.914C74.7304 226.979 72.1816 225.955 69.6789 224.845L9.96615 165.045C8.85766 162.538 7.83446 159.985 6.90019 157.39L77.3219 227.914ZM67.0738 223.651C64.5522 222.458 62.0802 221.177 59.6616 219.813L14.9924 175.079C13.6295 172.656 12.3503 170.18 11.1585 167.654L67.0738 223.651ZM56.2498 217.811L16.9915 178.496C26.7402 194.532 40.2284 208.044 56.2498 217.811ZM119.558 234.797L0.0276253 115.092C0.0661661 113.299 0.144894 111.515 0.26294 109.743L124.9 234.562C123.13 234.68 121.349 234.759 119.558 234.797ZM0.909734 102.975L131.658 233.915C133.29 233.71 134.912 233.472 136.523 233.201L1.62174 98.1036C1.35129 99.7165 1.11371 101.341 0.909734 102.975ZM1.83049 96.8974L137.727 232.992C139.287 232.713 140.837 232.403 142.375 232.062L2.75914 92.2427C2.41912 93.783 2.10935 95.3348 1.83049 96.8974ZM148.303 230.584L4.23425 86.3052C4.6341 84.8592 5.06091 83.4245 5.51411 82.0017L152.6 229.302C151.179 229.756 149.747 230.184 148.303 230.584ZM153.667 228.956L5.86019 80.933C6.15463 80.0386 6.45953 79.1489 6.77475 78.2642L156.332 228.04C155.449 228.355 154.56 228.661 153.667 228.956ZM8.83249 72.9096L161.678 225.979C162.986 225.437 164.281 224.873 165.564 224.286L10.5228 69.0177C9.93669 70.3027 9.37309 71.6001 8.83249 72.9096ZM10.9696 68.0499L166.531 223.838C167.791 223.248 169.039 222.635 170.274 222.002L12.8032 64.3014C12.1706 65.5383 11.5592 66.7879 10.9696 68.0499ZM175.075 219.395L15.4062 59.4935C16.0808 58.314 16.7754 57.1475 17.4893 55.9943L178.569 217.309C177.417 218.024 176.252 218.719 175.075 219.395ZM179.438 216.764L18.0334 55.124C18.7513 53.9868 19.4882 52.8629 20.2436 51.7527L182.804 214.55C181.695 215.307 180.573 216.045 179.438 216.764ZM23.3308 47.429L187.122 211.459C188.182 210.663 189.228 209.849 190.261 209.018L25.7684 44.2855C24.9386 45.3191 24.1259 46.3671 23.3308 47.429ZM26.4013 43.5041L191.041 208.384C192.062 207.547 193.069 206.694 194.061 205.824L28.9582 40.4799C28.0892 41.4733 27.2368 42.4815 26.4013 43.5041ZM197.925 202.279L32.4981 36.6103C33.4076 35.6596 34.3328 34.7242 35.2735 33.8045L200.727 199.499C199.808 200.441 198.874 201.368 197.925 202.279ZM201.422 198.78L35.9916 33.1084C36.6006 32.523 37.2159 31.9442 37.8373 31.3721L203.156 196.932C202.585 197.554 202.007 198.171 201.422 198.78ZM229.288 150.687C229.56 149.758 229.821 148.825 230.071 147.886L86.8108 4.41706C85.8739 4.66701 84.9415 4.92831 84.0139 5.20082L229.288 150.687ZM82.9257 5.5263C81.5111 5.95697 80.1079 6.41377 78.7164 6.89613L227.596 155.993C228.077 154.6 228.534 153.194 228.963 151.777L82.9257 5.5263ZM227.228 157.04C226.829 158.16 226.414 159.272 225.982 160.376L74.3399 8.51266C75.4422 8.08015 76.5526 7.6639 77.6708 7.26423L227.228 157.04ZM233.244 131.064C233.057 132.715 232.835 134.354 232.579 135.983L98.696 1.90438C100.322 1.64846 101.96 1.42612 103.607 1.23808L233.244 131.064ZM92.7908 2.99044C94.3429 2.66333 95.9064 2.36704 97.4804 2.10226L232.382 137.2C232.117 138.777 231.821 140.343 231.495 141.897L92.7908 2.99044ZM230.363 146.764C230.676 145.537 230.97 144.303 231.244 143.061L91.6284 3.24162C90.3886 3.51619 89.1562 3.81047 87.9315 4.12411L230.363 146.764ZM234.003 117.409C234 115.487 233.95 113.575 233.854 111.675L122.971 0.629689C121.189 0.539921 119.397 0.490026 117.595 0.48088C117.478 0.480287 117.361 0.479865 117.244 0.479614L234.003 117.409ZM115.836 0.484918C114.026 0.50244 112.225 0.5612 110.434 0.660308L233.822 124.228C233.921 122.435 233.98 120.632 233.998 118.819L115.836 0.484918ZM233.74 125.562C233.646 126.977 233.527 128.386 233.383 129.788L104.882 1.09964C106.282 0.955422 107.689 0.83593 109.102 0.741609L233.74 125.562ZM230.239 88.0548C230.857 90.4334 231.403 92.8412 231.873 95.2758L139.347 2.61448C141.778 3.08525 144.182 3.63134 146.557 4.25021L230.239 88.0548ZM131.062 1.31749C133.265 1.58172 135.449 1.90718 137.612 2.29213L232.195 97.0135C232.579 99.18 232.904 101.367 233.168 103.573L131.062 1.31749ZM233.77 110.175C233.664 108.496 233.523 106.827 233.348 105.168L129.469 1.13747C127.812 0.961707 126.145 0.82054 124.469 0.714703L233.77 110.175ZM221.494 64.8814C220.104 62.1264 218.608 59.4338 217.012 56.8088L177.753 17.4917C175.132 15.8942 172.444 14.3969 169.693 13.0051L221.494 64.8814ZM166.929 11.6521C163.804 10.1733 160.602 8.82891 157.332 7.62651L226.866 77.2624C225.665 73.9874 224.323 70.7808 222.845 67.6501L166.929 11.6521ZM227.647 79.4597C228.401 81.6503 229.092 83.8703 229.718 86.1174L148.491 4.77223C150.735 5.39856 152.951 6.09014 155.138 6.84479L227.647 79.4597ZM181.635 19.9645C194.68 28.6383 205.885 39.8615 214.543 52.9203L181.635 19.9645Z" fill="url(#paint0_linear_43_176)" fill-opacity="0.5"/>
<defs>
<linearGradient id="paint0_linear_43_176" x1="43.5296" y1="150.24" x2="178.258" y2="23.0192" gradientUnits="userSpaceOnUse">
<stop offset="0.114583" stop-color="#F2CB00"/>
<stop offset="0.5" stop-color="#5698F7"/>
<stop offset="1" stop-color="#474747"/>
</linearGradient>
</defs>
</svg>
